<?xml version="1.0" standalone="no"?>
<!DOCTYPE svg PUBLIC "-//W3C//DTD SVG 20010904//EN"
 "http://www.w3.org/TR/2001/REC-SVG-20010904/DTD/svg10.dtd">
<svg version="1.0" xmlns="http://www.w3.org/2000/svg"
 width="1000.000000pt" height="231.000000pt" viewBox="0 0 1000.000000 231.000000"
 preserveAspectRatio="xMidYMid meet">
<metadata>
Created by potrace 1.16, written by Peter Selinger 2001-2019
</metadata>
<g transform="translate(0.000000,231.000000) scale(0.100000,-0.100000)"
fill="#000000" stroke="none">
<path d="M4290 2005 c-56 -14 -141 -48 -205 -80 -272 -137 -450 -383 -501
-693 -59 -360 120 -747 436 -939 85 -51 198 -98 289 -119 105 -23 356 -15 456
15 159 48 285 124 425 257 l90 87 103 -100 c109 -106 200 -167 319 -213 231
-90 531 -79 743 27 159 80 325 227 395 350 l35 62 303 1 c166 0 305 1 310 3 4
1 8 -96 10 -215 l2 -218 255 0 255 0 0 860 c0 473 0 863 0 868 0 4 -230 7
-511 7 l-512 0 -69 -125 c-38 -69 -157 -284 -264 -478 -303 -549 -311 -561
-424 -621 -80 -43 -151 -55 -245 -42 -137 19 -241 95 -305 223 -28 57 -30 68
-30 173 0 106 2 115 31 173 42 80 108 145 189 185 61 30 71 32 175 32 99 0
116 -3 169 -27 37 -18 81 -51 120 -91 l63 -64 131 238 c73 131 132 244 132
251 -1 31 -167 135 -282 177 -127 47 -178 55 -338 55 -140 0 -164 -3 -244 -28
-223 -68 -395 -190 -515 -365 -34 -50 -135 -223 -225 -384 -90 -162 -180 -319
-199 -350 -53 -82 -110 -135 -185 -170 -62 -30 -75 -32 -168 -31 -91 0 -107 3
-159 30 -180 90 -263 259 -225 459 29 155 169 281 340 308 60 9 77 8 147 -12
91 -26 174 -78 220 -138 l32 -43 52 93 c156 276 219 400 208 413 -20 24 -150
106 -223 140 -117 55 -213 75 -371 80 -125 3 -151 1 -235 -21z m3191 -332 c11
-13 15 -81 17 -320 l3 -303 -154 0 c-155 0 -211 9 -221 36 -6 15 35 97 187
374 91 167 131 230 146 230 5 0 15 -7 22 -17z"/>
<path d="M190 1100 l0 -870 269 0 269 0 -2 215 c-3 212 -2 215 18 220 12 2
138 6 281 8 245 3 264 5 331 28 161 56 289 166 362 313 60 121 77 191 76 316
0 83 -5 120 -24 175 -65 194 -191 335 -367 409 -138 58 -106 55 -680 56 l-533
0 0 -870z m813 480 c79 -12 119 -30 159 -74 101 -108 101 -268 -1 -366 -76
-75 -103 -83 -284 -88 l-158 -5 2 272 1 271 107 0 c58 0 137 -5 174 -10z"/>
<path d="M1929 1109 c-261 -474 -475 -866 -477 -870 -2 -5 130 -9 295 -9 l298
1 116 212 117 212 306 5 c168 3 311 4 316 2 6 -2 10 -85 10 -218 l0 -214 260
0 260 0 0 870 0 870 -514 0 -514 0 -473 -861z m975 27 c-12 -82 -21 -86 -206
-86 -119 0 -150 3 -162 15 -21 21 -19 24 132 298 71 127 151 273 178 322 l49
90 9 -289 c5 -164 5 -315 0 -350z"/>
<path d="M8280 1101 l0 -871 265 0 265 0 0 214 c0 213 0 214 23 220 28 7 185
8 212 0 14 -3 58 -72 139 -220 l119 -214 299 0 299 0 -17 33 c-19 36 -253 459
-289 522 l-23 41 84 93 c129 143 184 273 184 436 0 270 -186 514 -455 595 -28
8 -199 13 -572 17 l-533 6 0 -872z m880 465 c124 -47 196 -208 151 -340 -21
-60 -84 -122 -149 -147 -46 -18 -85 -23 -204 -27 l-148 -4 0 264 c0 146 3 268
8 272 14 15 294 0 342 -18z"/>
</g>
</svg>
